<mxfile host="app.diagrams.net" agent="Mozilla/5.0 (Windows NT 10.0; Win64; x64) AppleWebKit/537.36 (KHTML, like Gecko) Chrome/126.0.0.0 Safari/537.36" version="24.7.6">
  <diagram id="C5RBs43oDa-KdzZeNtuy" name="Page-1">
    <mxGraphModel dx="2261" dy="780" grid="1" gridSize="10" guides="1" tooltips="1" connect="1" arrows="1" fold="1" page="1" pageScale="1" pageWidth="827" pageHeight="1169" math="0" shadow="0">
      <root>
        <mxCell id="WIyWlLk6GJQsqaUBKTNV-0" />
        <mxCell id="WIyWlLk6GJQsqaUBKTNV-1" parent="WIyWlLk6GJQsqaUBKTNV-0" />
        <mxCell id="ysaj5CcqhmHrnKEhdU0k-0" value="Input a, b, c" style="shape=parallelogram;perimeter=parallelogramPerimeter;whiteSpace=wrap;html=1;fixedSize=1;" vertex="1" parent="WIyWlLk6GJQsqaUBKTNV-1">
          <mxGeometry x="170" y="110" width="120" height="40" as="geometry" />
        </mxCell>
        <mxCell id="ysaj5CcqhmHrnKEhdU0k-2" value="Start" style="ellipse;whiteSpace=wrap;html=1;" vertex="1" parent="WIyWlLk6GJQsqaUBKTNV-1">
          <mxGeometry x="170" width="130" height="60" as="geometry" />
        </mxCell>
        <mxCell id="ysaj5CcqhmHrnKEhdU0k-6" value="" style="endArrow=classic;html=1;rounded=0;exitX=0.5;exitY=1;exitDx=0;exitDy=0;" edge="1" parent="WIyWlLk6GJQsqaUBKTNV-1" source="ysaj5CcqhmHrnKEhdU0k-2">
          <mxGeometry width="50" height="50" relative="1" as="geometry">
            <mxPoint x="235" y="70" as="sourcePoint" />
            <mxPoint x="234.5" y="110" as="targetPoint" />
          </mxGeometry>
        </mxCell>
        <mxCell id="ysaj5CcqhmHrnKEhdU0k-7" value="" style="endArrow=classic;html=1;rounded=0;" edge="1" parent="WIyWlLk6GJQsqaUBKTNV-1">
          <mxGeometry width="50" height="50" relative="1" as="geometry">
            <mxPoint x="234.5" y="150" as="sourcePoint" />
            <mxPoint x="235" y="190" as="targetPoint" />
          </mxGeometry>
        </mxCell>
        <mxCell id="ysaj5CcqhmHrnKEhdU0k-44" value="" style="edgeStyle=orthogonalEdgeStyle;rounded=0;orthogonalLoop=1;jettySize=auto;html=1;" edge="1" parent="WIyWlLk6GJQsqaUBKTNV-1" source="ysaj5CcqhmHrnKEhdU0k-8" target="ysaj5CcqhmHrnKEhdU0k-43">
          <mxGeometry relative="1" as="geometry" />
        </mxCell>
        <mxCell id="ysaj5CcqhmHrnKEhdU0k-8" value="a = 0" style="rhombus;whiteSpace=wrap;html=1;" vertex="1" parent="WIyWlLk6GJQsqaUBKTNV-1">
          <mxGeometry x="177.5" y="190" width="115" height="50" as="geometry" />
        </mxCell>
        <mxCell id="ysaj5CcqhmHrnKEhdU0k-11" value="" style="endArrow=classic;html=1;rounded=0;entryX=0;entryY=0.5;entryDx=0;entryDy=0;exitX=1;exitY=0.5;exitDx=0;exitDy=0;" edge="1" parent="WIyWlLk6GJQsqaUBKTNV-1" source="ysaj5CcqhmHrnKEhdU0k-8">
          <mxGeometry width="50" height="50" relative="1" as="geometry">
            <mxPoint x="300" y="210" as="sourcePoint" />
            <mxPoint x="370" y="215" as="targetPoint" />
          </mxGeometry>
        </mxCell>
        <mxCell id="ysaj5CcqhmHrnKEhdU0k-12" value="No" style="text;html=1;align=center;verticalAlign=middle;whiteSpace=wrap;rounded=0;" vertex="1" parent="WIyWlLk6GJQsqaUBKTNV-1">
          <mxGeometry x="292.5" y="190" width="60" height="30" as="geometry" />
        </mxCell>
        <mxCell id="ysaj5CcqhmHrnKEhdU0k-60" value="" style="edgeStyle=orthogonalEdgeStyle;rounded=0;orthogonalLoop=1;jettySize=auto;html=1;" edge="1" parent="WIyWlLk6GJQsqaUBKTNV-1" source="ysaj5CcqhmHrnKEhdU0k-16" target="ysaj5CcqhmHrnKEhdU0k-19">
          <mxGeometry relative="1" as="geometry" />
        </mxCell>
        <mxCell id="ysaj5CcqhmHrnKEhdU0k-16" value="delta = b*b+2*a*c" style="rounded=0;whiteSpace=wrap;html=1;" vertex="1" parent="WIyWlLk6GJQsqaUBKTNV-1">
          <mxGeometry x="370" y="195" width="110" height="60" as="geometry" />
        </mxCell>
        <mxCell id="ysaj5CcqhmHrnKEhdU0k-68" value="" style="edgeStyle=orthogonalEdgeStyle;rounded=0;orthogonalLoop=1;jettySize=auto;html=1;" edge="1" parent="WIyWlLk6GJQsqaUBKTNV-1" source="ysaj5CcqhmHrnKEhdU0k-19" target="ysaj5CcqhmHrnKEhdU0k-21">
          <mxGeometry relative="1" as="geometry" />
        </mxCell>
        <mxCell id="ysaj5CcqhmHrnKEhdU0k-88" value="" style="edgeStyle=orthogonalEdgeStyle;rounded=0;orthogonalLoop=1;jettySize=auto;html=1;entryX=0;entryY=0.5;entryDx=0;entryDy=0;" edge="1" parent="WIyWlLk6GJQsqaUBKTNV-1" source="ysaj5CcqhmHrnKEhdU0k-19" target="ysaj5CcqhmHrnKEhdU0k-61">
          <mxGeometry relative="1" as="geometry" />
        </mxCell>
        <mxCell id="ysaj5CcqhmHrnKEhdU0k-19" value="delta &amp;lt; 0" style="rhombus;whiteSpace=wrap;html=1;" vertex="1" parent="WIyWlLk6GJQsqaUBKTNV-1">
          <mxGeometry x="370" y="300" width="110" height="60" as="geometry" />
        </mxCell>
        <mxCell id="ysaj5CcqhmHrnKEhdU0k-94" style="edgeStyle=orthogonalEdgeStyle;rounded=0;orthogonalLoop=1;jettySize=auto;html=1;entryX=1;entryY=0.5;entryDx=0;entryDy=0;" edge="1" parent="WIyWlLk6GJQsqaUBKTNV-1" source="ysaj5CcqhmHrnKEhdU0k-21" target="ysaj5CcqhmHrnKEhdU0k-35">
          <mxGeometry relative="1" as="geometry">
            <Array as="points">
              <mxPoint x="425" y="600" />
            </Array>
          </mxGeometry>
        </mxCell>
        <mxCell id="ysaj5CcqhmHrnKEhdU0k-21" value="PTVN" style="rounded=0;whiteSpace=wrap;html=1;" vertex="1" parent="WIyWlLk6GJQsqaUBKTNV-1">
          <mxGeometry x="365" y="410" width="120" height="50" as="geometry" />
        </mxCell>
        <mxCell id="ysaj5CcqhmHrnKEhdU0k-35" value="Stop" style="ellipse;whiteSpace=wrap;html=1;" vertex="1" parent="WIyWlLk6GJQsqaUBKTNV-1">
          <mxGeometry x="160" y="560" width="120" height="80" as="geometry" />
        </mxCell>
        <mxCell id="ysaj5CcqhmHrnKEhdU0k-47" value="" style="edgeStyle=orthogonalEdgeStyle;rounded=0;orthogonalLoop=1;jettySize=auto;html=1;" edge="1" parent="WIyWlLk6GJQsqaUBKTNV-1" source="ysaj5CcqhmHrnKEhdU0k-43" target="ysaj5CcqhmHrnKEhdU0k-46">
          <mxGeometry relative="1" as="geometry" />
        </mxCell>
        <mxCell id="ysaj5CcqhmHrnKEhdU0k-52" value="" style="edgeStyle=orthogonalEdgeStyle;rounded=0;orthogonalLoop=1;jettySize=auto;html=1;" edge="1" parent="WIyWlLk6GJQsqaUBKTNV-1" source="ysaj5CcqhmHrnKEhdU0k-43" target="ysaj5CcqhmHrnKEhdU0k-51">
          <mxGeometry relative="1" as="geometry" />
        </mxCell>
        <mxCell id="ysaj5CcqhmHrnKEhdU0k-43" value="b = 0" style="rhombus;whiteSpace=wrap;html=1;" vertex="1" parent="WIyWlLk6GJQsqaUBKTNV-1">
          <mxGeometry x="10" y="190" width="115" height="50" as="geometry" />
        </mxCell>
        <mxCell id="ysaj5CcqhmHrnKEhdU0k-45" value="Yes" style="text;html=1;align=center;verticalAlign=middle;whiteSpace=wrap;rounded=0;" vertex="1" parent="WIyWlLk6GJQsqaUBKTNV-1">
          <mxGeometry x="125" y="195" width="60" height="30" as="geometry" />
        </mxCell>
        <mxCell id="ysaj5CcqhmHrnKEhdU0k-50" value="" style="edgeStyle=orthogonalEdgeStyle;rounded=0;orthogonalLoop=1;jettySize=auto;html=1;" edge="1" parent="WIyWlLk6GJQsqaUBKTNV-1" source="ysaj5CcqhmHrnKEhdU0k-46" target="ysaj5CcqhmHrnKEhdU0k-49">
          <mxGeometry relative="1" as="geometry" />
        </mxCell>
        <mxCell id="ysaj5CcqhmHrnKEhdU0k-46" value="x = -c/b" style="whiteSpace=wrap;html=1;" vertex="1" parent="WIyWlLk6GJQsqaUBKTNV-1">
          <mxGeometry x="-150" y="185" width="120" height="60" as="geometry" />
        </mxCell>
        <mxCell id="ysaj5CcqhmHrnKEhdU0k-48" value="No" style="text;html=1;align=center;verticalAlign=middle;whiteSpace=wrap;rounded=0;" vertex="1" parent="WIyWlLk6GJQsqaUBKTNV-1">
          <mxGeometry x="-30" y="195" width="60" height="30" as="geometry" />
        </mxCell>
        <mxCell id="ysaj5CcqhmHrnKEhdU0k-49" value="Display x" style="shape=parallelogram;perimeter=parallelogramPerimeter;whiteSpace=wrap;html=1;fixedSize=1;" vertex="1" parent="WIyWlLk6GJQsqaUBKTNV-1">
          <mxGeometry x="-150" y="310" width="120" height="60" as="geometry" />
        </mxCell>
        <mxCell id="ysaj5CcqhmHrnKEhdU0k-53" value="" style="edgeStyle=orthogonalEdgeStyle;rounded=0;orthogonalLoop=1;jettySize=auto;html=1;" edge="1" parent="WIyWlLk6GJQsqaUBKTNV-1" source="ysaj5CcqhmHrnKEhdU0k-51" target="ysaj5CcqhmHrnKEhdU0k-49">
          <mxGeometry relative="1" as="geometry" />
        </mxCell>
        <mxCell id="ysaj5CcqhmHrnKEhdU0k-56" value="" style="edgeStyle=orthogonalEdgeStyle;rounded=0;orthogonalLoop=1;jettySize=auto;html=1;" edge="1" parent="WIyWlLk6GJQsqaUBKTNV-1" source="ysaj5CcqhmHrnKEhdU0k-51" target="ysaj5CcqhmHrnKEhdU0k-55">
          <mxGeometry relative="1" as="geometry" />
        </mxCell>
        <mxCell id="ysaj5CcqhmHrnKEhdU0k-59" value="" style="edgeStyle=orthogonalEdgeStyle;rounded=0;orthogonalLoop=1;jettySize=auto;html=1;" edge="1" parent="WIyWlLk6GJQsqaUBKTNV-1" source="ysaj5CcqhmHrnKEhdU0k-51" target="ysaj5CcqhmHrnKEhdU0k-58">
          <mxGeometry relative="1" as="geometry" />
        </mxCell>
        <mxCell id="ysaj5CcqhmHrnKEhdU0k-51" value="c = 0" style="rhombus;whiteSpace=wrap;html=1;" vertex="1" parent="WIyWlLk6GJQsqaUBKTNV-1">
          <mxGeometry x="10" y="315" width="115" height="50" as="geometry" />
        </mxCell>
        <mxCell id="ysaj5CcqhmHrnKEhdU0k-54" value="Yes" style="text;html=1;align=center;verticalAlign=middle;whiteSpace=wrap;rounded=0;" vertex="1" parent="WIyWlLk6GJQsqaUBKTNV-1">
          <mxGeometry x="50" y="270" width="60" height="30" as="geometry" />
        </mxCell>
        <mxCell id="ysaj5CcqhmHrnKEhdU0k-55" value="PTVN" style="whiteSpace=wrap;html=1;" vertex="1" parent="WIyWlLk6GJQsqaUBKTNV-1">
          <mxGeometry x="7.5" y="415" width="120" height="60" as="geometry" />
        </mxCell>
        <mxCell id="ysaj5CcqhmHrnKEhdU0k-57" value="No" style="text;html=1;align=center;verticalAlign=middle;whiteSpace=wrap;rounded=0;" vertex="1" parent="WIyWlLk6GJQsqaUBKTNV-1">
          <mxGeometry x="50" y="370" width="60" height="30" as="geometry" />
        </mxCell>
        <mxCell id="ysaj5CcqhmHrnKEhdU0k-74" value="" style="edgeStyle=orthogonalEdgeStyle;rounded=0;orthogonalLoop=1;jettySize=auto;html=1;" edge="1" parent="WIyWlLk6GJQsqaUBKTNV-1" source="ysaj5CcqhmHrnKEhdU0k-58" target="ysaj5CcqhmHrnKEhdU0k-35">
          <mxGeometry relative="1" as="geometry" />
        </mxCell>
        <mxCell id="ysaj5CcqhmHrnKEhdU0k-58" value="PTVSN" style="shape=parallelogram;perimeter=parallelogramPerimeter;whiteSpace=wrap;html=1;fixedSize=1;" vertex="1" parent="WIyWlLk6GJQsqaUBKTNV-1">
          <mxGeometry x="160" y="310" width="120" height="60" as="geometry" />
        </mxCell>
        <mxCell id="ysaj5CcqhmHrnKEhdU0k-64" value="" style="edgeStyle=orthogonalEdgeStyle;rounded=0;orthogonalLoop=1;jettySize=auto;html=1;" edge="1" parent="WIyWlLk6GJQsqaUBKTNV-1" source="ysaj5CcqhmHrnKEhdU0k-61" target="ysaj5CcqhmHrnKEhdU0k-63">
          <mxGeometry relative="1" as="geometry" />
        </mxCell>
        <mxCell id="ysaj5CcqhmHrnKEhdU0k-70" value="" style="edgeStyle=orthogonalEdgeStyle;rounded=0;orthogonalLoop=1;jettySize=auto;html=1;" edge="1" parent="WIyWlLk6GJQsqaUBKTNV-1" source="ysaj5CcqhmHrnKEhdU0k-61" target="ysaj5CcqhmHrnKEhdU0k-69">
          <mxGeometry relative="1" as="geometry" />
        </mxCell>
        <mxCell id="ysaj5CcqhmHrnKEhdU0k-61" value="delta = 0" style="rhombus;whiteSpace=wrap;html=1;" vertex="1" parent="WIyWlLk6GJQsqaUBKTNV-1">
          <mxGeometry x="540" y="300" width="110" height="60" as="geometry" />
        </mxCell>
        <mxCell id="ysaj5CcqhmHrnKEhdU0k-66" value="" style="edgeStyle=orthogonalEdgeStyle;rounded=0;orthogonalLoop=1;jettySize=auto;html=1;" edge="1" parent="WIyWlLk6GJQsqaUBKTNV-1" source="ysaj5CcqhmHrnKEhdU0k-63" target="ysaj5CcqhmHrnKEhdU0k-65">
          <mxGeometry relative="1" as="geometry">
            <Array as="points">
              <mxPoint x="798" y="410" />
              <mxPoint x="798" y="410" />
            </Array>
          </mxGeometry>
        </mxCell>
        <mxCell id="ysaj5CcqhmHrnKEhdU0k-63" value="PT có 2 nghiệm phân biệt&amp;nbsp;&lt;div&gt;x1 = (-b + sqrt(st))/(2*a)&lt;/div&gt;&lt;div&gt;x2 = (-b - sqrt(st))/(2*a)&lt;/div&gt;" style="whiteSpace=wrap;html=1;" vertex="1" parent="WIyWlLk6GJQsqaUBKTNV-1">
          <mxGeometry x="725" y="300" width="145" height="60" as="geometry" />
        </mxCell>
        <mxCell id="ysaj5CcqhmHrnKEhdU0k-65" value="Display x1, x2" style="rhombus;whiteSpace=wrap;html=1;" vertex="1" parent="WIyWlLk6GJQsqaUBKTNV-1">
          <mxGeometry x="727.5" y="415" width="140" height="50" as="geometry" />
        </mxCell>
        <mxCell id="ysaj5CcqhmHrnKEhdU0k-73" value="" style="edgeStyle=orthogonalEdgeStyle;rounded=0;orthogonalLoop=1;jettySize=auto;html=1;" edge="1" parent="WIyWlLk6GJQsqaUBKTNV-1" source="ysaj5CcqhmHrnKEhdU0k-69" target="ysaj5CcqhmHrnKEhdU0k-72">
          <mxGeometry relative="1" as="geometry" />
        </mxCell>
        <mxCell id="ysaj5CcqhmHrnKEhdU0k-69" value="&amp;nbsp;x = -b/2*a" style="whiteSpace=wrap;html=1;" vertex="1" parent="WIyWlLk6GJQsqaUBKTNV-1">
          <mxGeometry x="535" y="400" width="120" height="60" as="geometry" />
        </mxCell>
        <mxCell id="ysaj5CcqhmHrnKEhdU0k-71" value="Yes" style="text;html=1;align=center;verticalAlign=middle;whiteSpace=wrap;rounded=0;" vertex="1" parent="WIyWlLk6GJQsqaUBKTNV-1">
          <mxGeometry x="580" y="365" width="60" height="30" as="geometry" />
        </mxCell>
        <mxCell id="ysaj5CcqhmHrnKEhdU0k-95" style="edgeStyle=orthogonalEdgeStyle;rounded=0;orthogonalLoop=1;jettySize=auto;html=1;" edge="1" parent="WIyWlLk6GJQsqaUBKTNV-1" source="ysaj5CcqhmHrnKEhdU0k-72" target="ysaj5CcqhmHrnKEhdU0k-35">
          <mxGeometry relative="1" as="geometry">
            <Array as="points">
              <mxPoint x="595" y="600" />
            </Array>
          </mxGeometry>
        </mxCell>
        <mxCell id="ysaj5CcqhmHrnKEhdU0k-72" value="Display x" style="shape=parallelogram;perimeter=parallelogramPerimeter;whiteSpace=wrap;html=1;fixedSize=1;" vertex="1" parent="WIyWlLk6GJQsqaUBKTNV-1">
          <mxGeometry x="535" y="500" width="120" height="60" as="geometry" />
        </mxCell>
        <mxCell id="ysaj5CcqhmHrnKEhdU0k-77" value="Yes" style="text;html=1;align=center;verticalAlign=middle;whiteSpace=wrap;rounded=0;" vertex="1" parent="WIyWlLk6GJQsqaUBKTNV-1">
          <mxGeometry x="414" y="370" width="60" height="30" as="geometry" />
        </mxCell>
        <mxCell id="ysaj5CcqhmHrnKEhdU0k-89" value="No" style="text;html=1;align=center;verticalAlign=middle;whiteSpace=wrap;rounded=0;" vertex="1" parent="WIyWlLk6GJQsqaUBKTNV-1">
          <mxGeometry x="474" y="300" width="60" height="30" as="geometry" />
        </mxCell>
        <mxCell id="ysaj5CcqhmHrnKEhdU0k-93" value="" style="endArrow=classic;html=1;rounded=0;entryX=1;entryY=0.5;entryDx=0;entryDy=0;" edge="1" parent="WIyWlLk6GJQsqaUBKTNV-1" target="ysaj5CcqhmHrnKEhdU0k-35">
          <mxGeometry width="50" height="50" relative="1" as="geometry">
            <mxPoint x="800" y="465" as="sourcePoint" />
            <mxPoint x="800" y="580" as="targetPoint" />
            <Array as="points">
              <mxPoint x="800" y="600" />
            </Array>
          </mxGeometry>
        </mxCell>
        <mxCell id="ysaj5CcqhmHrnKEhdU0k-96" style="edgeStyle=orthogonalEdgeStyle;rounded=0;orthogonalLoop=1;jettySize=auto;html=1;exitX=0.5;exitY=1;exitDx=0;exitDy=0;entryX=0.025;entryY=0.65;entryDx=0;entryDy=0;entryPerimeter=0;" edge="1" parent="WIyWlLk6GJQsqaUBKTNV-1" source="ysaj5CcqhmHrnKEhdU0k-49" target="ysaj5CcqhmHrnKEhdU0k-35">
          <mxGeometry relative="1" as="geometry">
            <Array as="points">
              <mxPoint x="-90" y="610" />
              <mxPoint x="163" y="610" />
            </Array>
          </mxGeometry>
        </mxCell>
        <mxCell id="ysaj5CcqhmHrnKEhdU0k-98" value="" style="endArrow=none;html=1;rounded=0;" edge="1" parent="WIyWlLk6GJQsqaUBKTNV-1">
          <mxGeometry width="50" height="50" relative="1" as="geometry">
            <mxPoint x="67" y="610" as="sourcePoint" />
            <mxPoint x="67" y="475" as="targetPoint" />
          </mxGeometry>
        </mxCell>
      </root>
    </mxGraphModel>
  </diagram>
</mxfile>
